<?xml version="1.0" encoding="UTF-8"?>
<svg id="Layer_2" data-name="Layer 2" xmlns="http://www.w3.org/2000/svg" viewBox="0 0 930 720.52">
  <defs>
    <style>
      .cls-1 {
        fill: #b59cf5;
      }

      .cls-2 {
        fill: #926ff3;
      }

      .cls-3 {
        fill: #4e29bb;
      }
    </style>
  </defs>
  <g id="Layer_1-2" data-name="Layer 1">
    <g>
      <path class="cls-3" d="M930,250.74v218.22c0,16.75-7.55,31.24-22.8,41.23-191.02,125.16-335.7,177.78-386.28,192.41-69.79,20.19-106.78,18.08-112.8,17.64-127.41-9.21-342.1-184.67-342.1-184.67,0,0,175.14,42.8,579.83-149.86,75.88-36.12,160.55-75.09,259.03-120.73,0,0,21.51-9.28,25.12-14.25Z"/>
      <path class="cls-2" d="M918.79,244.65c2.44-1.55,5.68-3.67,6.79-7.8,1.01-3.74.55-8.41-1.5-11.76-3.75-6.14-9.99-10.24-16.88-14.75C716.18,85.17,571.5,32.55,520.92,17.92,451.13-2.27,414.14-.16,408.12.28,280.71,9.48,66.02,184.94,66.02,184.94c0,0,175.14-42.8,579.83,149.86,13.02,6.2,26.31,12.49,39.88,18.87l221.08-102.52s8.13-4.07,11.97-6.51Z"/>
      <path class="cls-1" d="M271.14,360.08c.23-46.56,6.06-93.14,16.77-139.18,0,0,1.44-5.73,1.44-5.73-79.69-18.76-138.45-22.7-173.73-22.7-29.12,0-44.57,2.64-49.86,3.78-9.5,2.1-16.2,9.65-20.98,15.99C16.29,250.04-.03,303.93,0,360.08H0c-.03,56.16,16.29,110.05,44.79,147.86,4.78,6.34,11.48,13.89,20.98,15.99,5.29,1.14,20.74,3.78,49.86,3.78,35.28,0,94.04-3.94,173.73-22.7,0,0-1.44-5.73-1.44-5.73-10.71-46.04-16.54-92.62-16.77-139.18Z"/>
    </g>
  </g>
</svg>